<svg width="242" height="61" viewBox="0 0 242 61" fill="none" xmlns="http://www.w3.org/2000/svg">
<path d="M241.749 15.2V26.2C240.309 27.24 238.769 28.02 237.129 28.54C235.502 29.0467 233.715 29.3 231.769 29.3C229.462 29.3 227.382 28.9467 225.529 28.24C223.675 27.52 222.089 26.52 220.769 25.24C219.462 23.9467 218.455 22.4 217.749 20.6C217.042 18.8 216.689 16.82 216.689 14.66C216.689 12.4733 217.029 10.48 217.709 8.68C218.402 6.88 219.382 5.34 220.649 4.06C221.915 2.76667 223.455 1.76667 225.269 1.06C227.082 0.353334 229.109 0 231.349 0C232.482 0 233.535 0.0866667 234.509 0.26C235.482 0.420001 236.382 0.660001 237.209 0.98C238.035 1.28667 238.802 1.66667 239.509 2.12C240.215 2.56 240.875 3.06 241.489 3.62L240.389 5.38C240.215 5.64667 239.989 5.82 239.709 5.9C239.442 5.96667 239.142 5.9 238.809 5.7C238.489 5.51333 238.122 5.28667 237.709 5.02C237.295 4.75333 236.789 4.5 236.189 4.26C235.602 4.00667 234.902 3.79333 234.089 3.62C233.289 3.44667 232.335 3.36 231.229 3.36C229.615 3.36 228.155 3.62667 226.849 4.16C225.542 4.68 224.429 5.43333 223.509 6.42C222.589 7.39333 221.882 8.58 221.389 9.98C220.895 11.3667 220.649 12.9267 220.649 14.66C220.649 16.46 220.902 18.0733 221.409 19.5C221.929 20.9133 222.662 22.12 223.609 23.12C224.569 24.1067 225.729 24.86 227.089 25.38C228.449 25.9 229.975 26.16 231.669 26.16C233.002 26.16 234.182 26.0133 235.209 25.72C236.249 25.4133 237.262 24.9933 238.249 24.46V18.16H233.789C233.535 18.16 233.329 18.0867 233.169 17.94C233.022 17.7933 232.949 17.6133 232.949 17.4V15.2H241.749Z" fill="white"/>
<path d="M189.542 0.320007V28.98H187.602C187.295 28.98 187.035 28.9267 186.822 28.82C186.622 28.7133 186.422 28.5333 186.222 28.28L169.642 6.68001C169.669 7.01334 169.689 7.34001 169.702 7.66001C169.715 7.98001 169.722 8.28001 169.722 8.56001V28.98H166.322V0.320007H168.322C168.495 0.320007 168.642 0.33334 168.762 0.360006C168.882 0.37334 168.989 0.406674 169.082 0.460007C169.175 0.500007 169.269 0.566675 169.362 0.660009C169.455 0.740008 169.555 0.846674 169.662 0.980007L186.242 22.56C186.215 22.2133 186.189 21.88 186.162 21.56C186.149 21.2267 186.142 20.9133 186.142 20.62V0.320007H189.542Z" fill="white"/>
<path d="M137.391 28.98H133.511V0.320007H137.391V28.98Z" fill="white"/>
<path d="M108.141 0.320007L96.4607 28.98H92.9807L81.3007 0.320007H84.4007C84.7473 0.320007 85.0273 0.406674 85.2407 0.580008C85.454 0.753341 85.614 0.973341 85.7207 1.24001L93.8007 21.46C93.974 21.9133 94.1407 22.4067 94.3007 22.94C94.474 23.4733 94.6273 24.0333 94.7607 24.62C94.894 24.0333 95.034 23.4733 95.1807 22.94C95.3273 22.4067 95.4873 21.9133 95.6607 21.46L103.721 1.24001C103.801 1.01334 103.954 0.806674 104.181 0.620007C104.421 0.420007 104.707 0.320007 105.041 0.320007H108.141Z" fill="white"/>
<path d="M55.9097 28.98H52.0297V0.320007H55.9097V28.98Z" fill="white"/>
<path d="M24.84 14.66C24.84 16.8067 24.5 18.76 23.82 20.52C23.14 22.28 22.18 23.7867 20.94 25.04C19.7 26.2933 18.2067 27.2667 16.46 27.96C14.7267 28.64 12.8067 28.98 10.7 28.98H0V0.320007H10.7C12.8067 0.320007 14.7267 0.666674 16.46 1.36001C18.2067 2.04001 19.7 3.01334 20.94 4.28001C22.18 5.53334 23.14 7.04001 23.82 8.80001C24.5 10.56 24.84 12.5133 24.84 14.66ZM20.86 14.66C20.86 12.9 20.62 11.3267 20.14 9.94001C19.66 8.55334 18.98 7.38001 18.1 6.42001C17.22 5.46001 16.1533 4.72668 14.9 4.22001C13.6467 3.71334 12.2467 3.46001 10.7 3.46001H3.88V25.84H10.7C12.2467 25.84 13.6467 25.5867 14.9 25.08C16.1533 24.5733 17.22 23.8467 18.1 22.9C18.98 21.94 19.66 20.7667 20.14 19.38C20.62 17.9933 20.86 16.42 20.86 14.66Z" fill="white"/>
<path d="M186.237 53.74C186.237 52.6066 186.004 51.78 185.537 51.26C185.07 50.7266 184.41 50.46 183.557 50.46C183.25 50.46 182.944 50.52 182.637 50.64C182.344 50.7466 182.057 50.8933 181.777 51.08C181.51 51.2666 181.257 51.4866 181.017 51.74C180.777 51.98 180.564 52.2333 180.377 52.5V59.82C180.19 59.9266 179.944 60 179.637 60.04C179.344 60.0933 179.064 60.12 178.797 60.12V49.88C179.237 49.6533 179.73 49.54 180.277 49.54V51.52C180.45 51.2933 180.67 51.0533 180.937 50.8C181.217 50.5333 181.524 50.2933 181.857 50.08C182.204 49.8666 182.577 49.6933 182.977 49.56C183.39 49.4133 183.83 49.34 184.297 49.34C185.377 49.34 186.23 49.6666 186.857 50.32C187.497 50.9733 187.817 51.9066 187.817 53.12V59.82C187.63 59.9266 187.384 60 187.077 60.04C186.784 60.0933 186.504 60.12 186.237 60.12V53.74Z" fill="white"/>
<path d="M176.25 59.24C176.21 59.3066 176.143 59.3866 176.05 59.48C175.97 59.5733 175.877 59.6666 175.77 59.76C175.663 59.84 175.543 59.9133 175.41 59.98C175.29 60.0466 175.177 60.0933 175.07 60.12C174.643 60.0933 174.283 59.9333 173.99 59.64C173.697 59.3333 173.537 58.9333 173.51 58.44C173.403 58.64 173.243 58.8533 173.03 59.08C172.817 59.2933 172.557 59.4933 172.25 59.68C171.957 59.8533 171.617 59.9933 171.23 60.1C170.843 60.22 170.423 60.28 169.97 60.28C169.023 60.28 168.27 60.04 167.71 59.56C167.163 59.08 166.89 58.44 166.89 57.64C166.89 56.8133 167.203 56.12 167.83 55.56C168.457 55 169.53 54.5866 171.05 54.32L173.43 53.9V53.12C173.43 52.16 173.203 51.4266 172.75 50.92C172.31 50.4133 171.65 50.16 170.77 50.16C170.223 50.16 169.757 50.3 169.37 50.58C168.997 50.8466 168.81 51.2466 168.81 51.78C168.81 52.02 168.89 52.2333 169.05 52.42C168.93 52.58 168.737 52.7266 168.47 52.86C168.203 52.9933 167.93 53.0733 167.65 53.1C167.583 53.0333 167.503 52.9333 167.41 52.8C167.317 52.6666 167.27 52.4866 167.27 52.26C167.27 51.8466 167.39 51.46 167.63 51.1C167.87 50.74 168.183 50.4333 168.57 50.18C168.957 49.9133 169.403 49.7066 169.91 49.56C170.417 49.4133 170.943 49.34 171.49 49.34C172.77 49.34 173.677 49.6333 174.21 50.22C174.743 50.7933 175.01 51.6 175.01 52.64V57.66C175.01 58.2066 175.13 58.5866 175.37 58.8C175.61 59 175.89 59.12 176.21 59.16L176.25 59.24ZM170.61 59.22C171.303 59.22 171.89 59.06 172.37 58.74C172.863 58.42 173.217 58.0066 173.43 57.5V54.62L170.75 55.1C170.03 55.2333 169.477 55.46 169.09 55.78C168.717 56.1 168.53 56.56 168.53 57.16C168.53 57.8266 168.73 58.34 169.13 58.7C169.543 59.0466 170.037 59.22 170.61 59.22Z" fill="white"/>
<path d="M157.197 54.82C157.237 55.54 157.363 56.1733 157.577 56.72C157.803 57.2533 158.09 57.7 158.437 58.06C158.783 58.42 159.183 58.6933 159.637 58.88C160.103 59.0533 160.597 59.14 161.117 59.14C161.77 59.14 162.33 59.0533 162.797 58.88C163.277 58.7066 163.71 58.4333 164.097 58.06C164.283 58.1 164.41 58.2266 164.477 58.44C164.383 58.5866 164.23 58.7666 164.017 58.98C163.817 59.1933 163.543 59.4 163.197 59.6C162.863 59.8 162.457 59.9666 161.977 60.1C161.51 60.2466 160.963 60.32 160.337 60.32C159.67 60.32 159.05 60.2 158.477 59.96C157.903 59.72 157.403 59.3733 156.977 58.92C156.55 58.4666 156.21 57.9066 155.957 57.24C155.717 56.5733 155.597 55.82 155.597 54.98C155.597 54.2066 155.73 53.48 155.997 52.8C156.263 52.1066 156.623 51.5066 157.077 51C157.543 50.4933 158.083 50.0933 158.697 49.8C159.323 49.4933 159.99 49.34 160.697 49.34C161.457 49.34 162.083 49.4666 162.577 49.72C163.07 49.9733 163.457 50.3 163.737 50.7C164.03 51.1 164.23 51.54 164.337 52.02C164.457 52.5 164.517 52.9666 164.517 53.42C164.41 53.58 164.263 53.72 164.077 53.84C163.903 53.96 163.71 54.0533 163.497 54.12L157.197 54.82ZM160.177 50.24C159.763 50.24 159.377 50.3133 159.017 50.46C158.657 50.6066 158.343 50.8333 158.077 51.14C157.81 51.4466 157.59 51.84 157.417 52.32C157.257 52.8 157.17 53.38 157.157 54.06L162.797 53.48C162.81 53.4133 162.817 53.3466 162.817 53.28C162.817 53.2133 162.817 53.1533 162.817 53.1C162.817 52.6866 162.763 52.3066 162.657 51.96C162.55 51.6133 162.383 51.3133 162.157 51.06C161.943 50.8066 161.67 50.6066 161.337 50.46C161.017 50.3133 160.63 50.24 160.177 50.24Z" fill="white"/>
<path d="M153.714 51.7C153.634 51.8467 153.474 52 153.234 52.16C153.007 52.32 152.721 52.42 152.374 52.46C152.334 52.2333 152.254 51.9933 152.134 51.74C152.027 51.4733 151.867 51.2333 151.654 51.02C151.441 50.7933 151.174 50.6133 150.854 50.48C150.534 50.3333 150.147 50.26 149.694 50.26C149.321 50.26 148.941 50.3333 148.554 50.48C148.181 50.6267 147.841 50.8667 147.534 51.2C147.227 51.5333 146.974 51.96 146.774 52.48C146.587 53 146.494 53.6333 146.494 54.38C146.494 55.18 146.601 55.88 146.814 56.48C147.027 57.0667 147.314 57.56 147.674 57.96C148.034 58.3467 148.447 58.64 148.914 58.84C149.394 59.0267 149.894 59.12 150.414 59.12C151.094 59.12 151.667 59.02 152.134 58.82C152.614 58.6067 153.021 58.3067 153.354 57.92C153.434 57.9333 153.514 57.98 153.594 58.06C153.674 58.14 153.727 58.2133 153.754 58.28C153.647 58.4667 153.481 58.68 153.254 58.92C153.041 59.1467 152.767 59.36 152.434 59.56C152.101 59.76 151.714 59.9267 151.274 60.06C150.834 60.2067 150.334 60.28 149.774 60.28C149.107 60.28 148.474 60.1667 147.874 59.94C147.287 59.7133 146.767 59.3733 146.314 58.92C145.874 58.4667 145.521 57.9133 145.254 57.26C145.001 56.6067 144.874 55.8467 144.874 54.98C144.874 54.22 145.014 53.5067 145.294 52.84C145.574 52.16 145.954 51.5667 146.434 51.06C146.927 50.54 147.507 50.1333 148.174 49.84C148.841 49.5333 149.561 49.38 150.334 49.38C150.974 49.38 151.507 49.4733 151.934 49.66C152.361 49.8333 152.701 50.0467 152.954 50.3C153.221 50.54 153.414 50.7933 153.534 51.06C153.654 51.3267 153.714 51.54 153.714 51.7Z" fill="white"/>
<path d="M133.995 54.4C133.995 55.24 134.095 55.9733 134.295 56.6C134.509 57.2266 134.782 57.7533 135.115 58.18C135.462 58.5933 135.855 58.9066 136.295 59.12C136.749 59.3333 137.222 59.44 137.715 59.44C138.782 59.44 139.595 59.0866 140.155 58.38C140.715 57.66 140.995 56.58 140.995 55.14C140.995 54.4466 140.915 53.8 140.755 53.2C140.595 52.6 140.355 52.08 140.035 51.64C139.729 51.2 139.349 50.8533 138.895 50.6C138.442 50.3466 137.922 50.22 137.335 50.22C136.909 50.22 136.495 50.3 136.095 50.46C135.695 50.62 135.342 50.8733 135.035 51.22C134.729 51.5533 134.475 51.9866 134.275 52.52C134.089 53.04 133.995 53.6666 133.995 54.4ZM132.315 55.02C132.315 54.2066 132.462 53.4533 132.755 52.76C133.049 52.0533 133.442 51.4533 133.935 50.96C134.442 50.4533 135.029 50.06 135.695 49.78C136.375 49.4866 137.095 49.34 137.855 49.34C138.682 49.34 139.395 49.48 139.995 49.76C140.609 50.04 141.109 50.4133 141.495 50.88C141.895 51.3466 142.189 51.8933 142.375 52.52C142.575 53.1466 142.675 53.8066 142.675 54.5C142.675 55.3133 142.549 56.0733 142.295 56.78C142.042 57.4866 141.675 58.1066 141.195 58.64C140.729 59.16 140.155 59.5733 139.475 59.88C138.795 60.1866 138.022 60.34 137.155 60.34C136.515 60.34 135.902 60.22 135.315 59.98C134.729 59.74 134.209 59.3933 133.755 58.94C133.315 58.4866 132.962 57.9333 132.695 57.28C132.442 56.6133 132.315 55.86 132.315 55.02Z" fill="white"/>
<path d="M117.509 54.82C117.549 55.54 117.676 56.1733 117.889 56.72C118.116 57.2533 118.403 57.7 118.749 58.06C119.096 58.42 119.496 58.6933 119.949 58.88C120.416 59.0533 120.909 59.14 121.429 59.14C122.083 59.14 122.643 59.0533 123.109 58.88C123.589 58.7066 124.023 58.4333 124.409 58.06C124.596 58.1 124.723 58.2266 124.789 58.44C124.696 58.5866 124.543 58.7666 124.329 58.98C124.129 59.1933 123.856 59.4 123.509 59.6C123.176 59.8 122.769 59.9666 122.289 60.1C121.823 60.2466 121.276 60.32 120.649 60.32C119.983 60.32 119.363 60.2 118.789 59.96C118.216 59.72 117.716 59.3733 117.289 58.92C116.863 58.4666 116.523 57.9066 116.269 57.24C116.029 56.5733 115.909 55.82 115.909 54.98C115.909 54.2066 116.043 53.48 116.309 52.8C116.576 52.1066 116.936 51.5066 117.389 51C117.856 50.4933 118.396 50.0933 119.009 49.8C119.636 49.4933 120.303 49.34 121.009 49.34C121.769 49.34 122.396 49.4666 122.889 49.72C123.383 49.9733 123.769 50.3 124.049 50.7C124.343 51.1 124.543 51.54 124.649 52.02C124.769 52.5 124.829 52.9666 124.829 53.42C124.723 53.58 124.576 53.72 124.389 53.84C124.216 53.96 124.023 54.0533 123.809 54.12L117.509 54.82ZM120.489 50.24C120.076 50.24 119.689 50.3133 119.329 50.46C118.969 50.6066 118.656 50.8333 118.389 51.14C118.123 51.4466 117.903 51.84 117.729 52.32C117.569 52.8 117.483 53.38 117.469 54.06L123.109 53.48C123.123 53.4133 123.129 53.3466 123.129 53.28C123.129 53.2133 123.129 53.1533 123.129 53.1C123.129 52.6866 123.076 52.3066 122.969 51.96C122.863 51.6133 122.696 51.3133 122.469 51.06C122.256 50.8066 121.983 50.6066 121.649 50.46C121.329 50.3133 120.943 50.24 120.489 50.24Z" fill="white"/>
<path d="M111.395 53.74C111.395 52.6066 111.161 51.78 110.695 51.26C110.228 50.7266 109.568 50.46 108.715 50.46C108.408 50.46 108.101 50.52 107.795 50.64C107.488 50.7466 107.195 50.9 106.915 51.1C106.648 51.2866 106.395 51.5066 106.155 51.76C105.915 52 105.701 52.26 105.515 52.54V59.82C105.328 59.9266 105.081 60 104.775 60.04C104.481 60.0933 104.201 60.12 103.935 60.12V44.88C104.161 44.76 104.408 44.6733 104.675 44.62C104.955 44.5666 105.235 44.54 105.515 44.54V51.38C105.701 51.1533 105.928 50.92 106.195 50.68C106.461 50.44 106.761 50.22 107.095 50.02C107.428 49.82 107.788 49.66 108.175 49.54C108.575 49.4066 109.001 49.34 109.455 49.34C110.535 49.34 111.388 49.6666 112.015 50.32C112.655 50.9733 112.975 51.9066 112.975 53.12V59.82C112.788 59.9266 112.541 60 112.235 60.04C111.941 60.0933 111.661 60.12 111.395 60.12V53.74Z" fill="white"/>
<path d="M93.9596 50.36C94.0663 50.2133 94.2329 50.08 94.4596 49.96C94.6996 49.8267 94.9596 49.76 95.2396 49.76H95.8796V46.88C96.0929 46.7067 96.3396 46.58 96.6196 46.5C96.9129 46.4067 97.1929 46.36 97.4596 46.36V49.76H101.38C101.366 49.9867 101.3 50.18 101.18 50.34C101.073 50.4867 100.933 50.56 100.76 50.56H97.4596V57.12C97.4596 57.5467 97.5063 57.8933 97.5996 58.16C97.7063 58.4133 97.8463 58.6133 98.0196 58.76C98.1929 58.9067 98.3929 59.0067 98.6196 59.06C98.8463 59.1133 99.0796 59.14 99.3196 59.14C99.7596 59.14 100.126 59.0533 100.42 58.88C100.713 58.7067 100.953 58.5267 101.14 58.34C101.326 58.3933 101.446 58.5067 101.5 58.68C101.433 58.7867 101.326 58.9267 101.18 59.1C101.033 59.2733 100.84 59.4467 100.6 59.62C100.36 59.78 100.073 59.92 99.7396 60.04C99.4063 60.16 99.0329 60.22 98.6196 60.22C98.2463 60.22 97.8929 60.1733 97.5596 60.08C97.2263 59.9867 96.9329 59.8333 96.6796 59.62C96.4396 59.4067 96.2463 59.12 96.0996 58.76C95.9529 58.4 95.8796 57.9533 95.8796 57.42V50.56H93.9596V50.36Z" fill="white"/>
<path d="M78.4681 54.4C78.4681 55.24 78.5681 55.9733 78.7681 56.6C78.9814 57.2266 79.2548 57.7533 79.5881 58.18C79.9348 58.5933 80.3281 58.9066 80.7681 59.12C81.2214 59.3333 81.6948 59.44 82.1881 59.44C83.2548 59.44 84.0681 59.0866 84.6281 58.38C85.1881 57.66 85.4681 56.58 85.4681 55.14C85.4681 54.4466 85.3881 53.8 85.2281 53.2C85.0681 52.6 84.8281 52.08 84.5081 51.64C84.2014 51.2 83.8214 50.8533 83.3681 50.6C82.9148 50.3466 82.3948 50.22 81.8081 50.22C81.3814 50.22 80.9681 50.3 80.5681 50.46C80.1681 50.62 79.8148 50.8733 79.5081 51.22C79.2014 51.5533 78.9481 51.9866 78.7481 52.52C78.5614 53.04 78.4681 53.6666 78.4681 54.4ZM76.7881 55.02C76.7881 54.2066 76.9348 53.4533 77.2281 52.76C77.5214 52.0533 77.9148 51.4533 78.4081 50.96C78.9148 50.4533 79.5014 50.06 80.1681 49.78C80.8481 49.4866 81.5681 49.34 82.3281 49.34C83.1548 49.34 83.8681 49.48 84.4681 49.76C85.0814 50.04 85.5814 50.4133 85.9681 50.88C86.3681 51.3466 86.6614 51.8933 86.8481 52.52C87.0481 53.1466 87.1481 53.8066 87.1481 54.5C87.1481 55.3133 87.0214 56.0733 86.7681 56.78C86.5148 57.4866 86.1481 58.1066 85.6681 58.64C85.2014 59.16 84.6281 59.5733 83.9481 59.88C83.2681 60.1866 82.4948 60.34 81.6281 60.34C80.9881 60.34 80.3748 60.22 79.7881 59.98C79.2014 59.74 78.6814 59.3933 78.2281 58.94C77.7881 58.4866 77.4348 57.9333 77.1681 57.28C76.9148 56.6133 76.7881 55.86 76.7881 55.02Z" fill="white"/>
<path d="M67.7877 50.36C67.8944 50.2133 68.0611 50.08 68.2877 49.96C68.5277 49.8267 68.7877 49.76 69.0677 49.76H69.7077V46.88C69.9211 46.7067 70.1677 46.58 70.4477 46.5C70.7411 46.4067 71.0211 46.36 71.2877 46.36V49.76H75.2077C75.1944 49.9867 75.1277 50.18 75.0077 50.34C74.9011 50.4867 74.7611 50.56 74.5877 50.56H71.2877V57.12C71.2877 57.5467 71.3344 57.8933 71.4277 58.16C71.5344 58.4133 71.6744 58.6133 71.8477 58.76C72.0211 58.9067 72.2211 59.0067 72.4477 59.06C72.6744 59.1133 72.9077 59.14 73.1477 59.14C73.5877 59.14 73.9544 59.0533 74.2477 58.88C74.5411 58.7067 74.7811 58.5267 74.9677 58.34C75.1544 58.3933 75.2744 58.5067 75.3277 58.68C75.2611 58.7867 75.1544 58.9267 75.0077 59.1C74.8611 59.2733 74.6677 59.4467 74.4277 59.62C74.1877 59.78 73.9011 59.92 73.5677 60.04C73.2344 60.16 72.8611 60.22 72.4477 60.22C72.0744 60.22 71.7211 60.1733 71.3877 60.08C71.0544 59.9867 70.7611 59.8333 70.5077 59.62C70.2677 59.4067 70.0744 59.12 69.9277 58.76C69.7811 58.4 69.7077 57.9533 69.7077 57.42V50.56H67.7877V50.36Z" fill="white"/>
<path d="M63.9715 53.74C63.9715 52.6066 63.7382 51.78 63.2715 51.26C62.8048 50.7266 62.1448 50.46 61.2915 50.46C60.9848 50.46 60.6782 50.52 60.3715 50.64C60.0782 50.7466 59.7915 50.8933 59.5115 51.08C59.2448 51.2666 58.9915 51.4866 58.7515 51.74C58.5115 51.98 58.2982 52.2333 58.1115 52.5V59.82C57.9248 59.9266 57.6782 60 57.3715 60.04C57.0782 60.0933 56.7982 60.12 56.5315 60.12V49.88C56.9715 49.6533 57.4648 49.54 58.0115 49.54V51.52C58.1848 51.2933 58.4048 51.0533 58.6715 50.8C58.9515 50.5333 59.2582 50.2933 59.5915 50.08C59.9382 49.8666 60.3115 49.6933 60.7115 49.56C61.1248 49.4133 61.5648 49.34 62.0315 49.34C63.1115 49.34 63.9648 49.6666 64.5915 50.32C65.2315 50.9733 65.5515 51.9066 65.5515 53.12V59.82C65.3648 59.9266 65.1182 60 64.8115 60.04C64.5182 60.0933 64.2382 60.12 63.9715 60.12V53.74Z" fill="white"/>
<path d="M53.3199 46.4C53.1999 46.6133 53.0133 46.84 52.7599 47.08C52.5066 47.3067 52.2799 47.4667 52.0799 47.56C51.8799 47.4667 51.6533 47.3067 51.3999 47.08C51.1466 46.84 50.9533 46.6133 50.8199 46.4C50.9533 46.1733 51.1466 45.94 51.3999 45.7C51.6533 45.46 51.8799 45.2867 52.0799 45.18C52.2799 45.2867 52.5066 45.46 52.7599 45.7C53.0266 45.94 53.2133 46.1733 53.3199 46.4ZM51.2399 49.88C51.4666 49.76 51.7133 49.6733 51.9799 49.62C52.2599 49.5667 52.5399 49.54 52.8199 49.54V59.82C52.6333 59.9267 52.3866 60 52.0799 60.04C51.7866 60.0933 51.5066 60.12 51.2399 60.12V49.88Z" fill="white"/>
</svg>
