<svg width="484" height="100" viewBox="0 0 484 100" fill="none" xmlns="http://www.w3.org/2000/svg">
<path d="M483.497 30.4V52.4C480.617 54.48 477.538 56.04 474.258 57.08C471.004 58.0933 467.431 58.6 463.538 58.6C458.924 58.6 454.764 57.8933 451.057 56.48C447.351 55.04 444.178 53.04 441.538 50.48C438.924 47.8933 436.911 44.8 435.497 41.2C434.084 37.6 433.378 33.64 433.378 29.32C433.378 24.9467 434.057 20.96 435.417 17.36C436.804 13.76 438.764 10.68 441.297 8.12C443.831 5.53334 446.911 3.53334 450.538 2.12C454.164 0.706669 458.217 0 462.697 0C464.964 0 467.071 0.173333 469.017 0.52C470.964 0.840003 472.764 1.32 474.417 1.96C476.071 2.57333 477.604 3.33334 479.017 4.24C480.431 5.12 481.751 6.12 482.978 7.24L480.777 10.76C480.431 11.2933 479.977 11.64 479.417 11.8C478.884 11.9333 478.284 11.8 477.617 11.4C476.977 11.0267 476.244 10.5733 475.418 10.04C474.591 9.50667 473.578 9 472.378 8.52C471.204 8.01333 469.804 7.58667 468.177 7.24C466.577 6.89334 464.671 6.72 462.457 6.72C459.231 6.72 456.311 7.25334 453.698 8.32C451.084 9.36 448.857 10.8667 447.017 12.84C445.177 14.7867 443.764 17.16 442.777 19.96C441.791 22.7333 441.297 25.8533 441.297 29.32C441.297 32.92 441.804 36.1467 442.818 39C443.858 41.8267 445.324 44.24 447.217 46.24C449.137 48.2133 451.457 49.72 454.177 50.76C456.897 51.8 459.951 52.32 463.337 52.32C466.004 52.32 468.364 52.0267 470.418 51.44C472.498 50.8267 474.524 49.9867 476.497 48.92V36.32H467.577C467.071 36.32 466.657 36.1733 466.337 35.88C466.044 35.5867 465.897 35.2267 465.897 34.8V30.4H483.497Z" fill="white"/>
<path d="M379.084 0.640015V57.96H375.204C374.59 57.96 374.07 57.8534 373.644 57.64C373.244 57.4267 372.844 57.0667 372.444 56.56L339.284 13.36C339.337 14.0267 339.377 14.68 339.404 15.32C339.43 15.96 339.444 16.56 339.444 17.12V57.96H332.644V0.640015H336.644C336.99 0.640015 337.284 0.66668 337.524 0.720013C337.764 0.746681 337.977 0.813348 338.164 0.920013C338.35 1.00001 338.537 1.13335 338.724 1.32002C338.91 1.48002 339.11 1.69335 339.324 1.96001L372.484 45.12C372.43 44.4267 372.377 43.76 372.324 43.12C372.297 42.4533 372.284 41.8267 372.284 41.24V0.640015H379.084Z" fill="white"/>
<path d="M274.782 57.96H267.022V0.640015H274.782V57.96Z" fill="white"/>
<path d="M216.281 0.640015L192.921 57.96H185.961L162.601 0.640015H168.801C169.495 0.640015 170.055 0.813348 170.481 1.16002C170.908 1.50668 171.228 1.94668 171.441 2.48001L187.601 42.92C187.948 43.8267 188.281 44.8133 188.601 45.88C188.948 46.9467 189.255 48.0667 189.521 49.24C189.788 48.0667 190.068 46.9467 190.361 45.88C190.655 44.8133 190.975 43.8267 191.321 42.92L207.441 2.48001C207.601 2.02668 207.908 1.61335 208.361 1.24001C208.841 0.840014 209.415 0.640015 210.081 0.640015H216.281Z" fill="white"/>
<path d="M111.819 57.96H104.059V0.640015H111.819V57.96Z" fill="white"/>
<path d="M49.68 29.32C49.68 33.6134 49 37.52 47.64 41.04C46.28 44.56 44.36 47.5734 41.88 50.08C39.4 52.5867 36.4133 54.5334 32.92 55.92C29.4533 57.28 25.6133 57.96 21.4 57.96H0V0.640015H21.4C25.6133 0.640015 29.4533 1.33335 32.92 2.72002C36.4133 4.08002 39.4 6.02668 41.88 8.56002C44.36 11.0667 46.28 14.08 47.64 17.6C49 21.12 49.68 25.0267 49.68 29.32ZM41.72 29.32C41.72 25.8 41.24 22.6533 40.28 19.88C39.32 17.1067 37.96 14.76 36.2 12.84C34.44 10.92 32.3067 9.45335 29.8 8.44002C27.2933 7.42668 24.4933 6.92002 21.4 6.92002H7.76V51.68H21.4C24.4933 51.68 27.2933 51.1733 29.8 50.16C32.3067 49.1467 34.44 47.6933 36.2 45.8C37.96 43.88 39.32 41.5334 40.28 38.76C41.24 35.9867 41.72 32.84 41.72 29.32Z" fill="white"/>
<path d="M306.577 92.72C306.577 91.5867 306.344 90.76 305.877 90.24C305.41 89.7067 304.75 89.44 303.897 89.44C303.59 89.44 303.284 89.5 302.977 89.62C302.684 89.7267 302.397 89.8733 302.117 90.06C301.85 90.2467 301.597 90.4667 301.357 90.72C301.117 90.96 300.904 91.2133 300.717 91.48V98.8C300.53 98.9067 300.284 98.98 299.977 99.02C299.684 99.0733 299.404 99.1 299.137 99.1V88.86C299.577 88.6333 300.07 88.52 300.617 88.52V90.5C300.79 90.2733 301.01 90.0333 301.277 89.78C301.557 89.5133 301.864 89.2733 302.197 89.06C302.544 88.8467 302.917 88.6733 303.317 88.54C303.73 88.3933 304.17 88.32 304.637 88.32C305.717 88.32 306.57 88.6467 307.197 89.3C307.837 89.9533 308.157 90.8867 308.157 92.1V98.8C307.97 98.9067 307.724 98.98 307.417 99.02C307.124 99.0733 306.844 99.1 306.577 99.1V92.72Z" fill="white"/>
<path d="M296.59 98.22C296.55 98.2867 296.483 98.3667 296.39 98.46C296.31 98.5533 296.217 98.6467 296.11 98.74C296.003 98.82 295.883 98.8933 295.75 98.96C295.63 99.0267 295.517 99.0733 295.41 99.1C294.983 99.0733 294.623 98.9133 294.33 98.62C294.037 98.3133 293.877 97.9133 293.85 97.42C293.743 97.62 293.583 97.8333 293.37 98.06C293.157 98.2733 292.897 98.4733 292.59 98.66C292.297 98.8333 291.957 98.9733 291.57 99.08C291.183 99.2 290.763 99.26 290.31 99.26C289.363 99.26 288.61 99.02 288.05 98.54C287.503 98.06 287.23 97.42 287.23 96.62C287.23 95.7933 287.543 95.1 288.17 94.54C288.797 93.98 289.87 93.5667 291.39 93.3L293.77 92.88V92.1C293.77 91.14 293.543 90.4067 293.09 89.9C292.65 89.3933 291.99 89.14 291.11 89.14C290.563 89.14 290.097 89.28 289.71 89.56C289.337 89.8267 289.15 90.2267 289.15 90.76C289.15 91 289.23 91.2133 289.39 91.4C289.27 91.56 289.077 91.7067 288.81 91.84C288.543 91.9733 288.27 92.0533 287.99 92.08C287.923 92.0133 287.843 91.9133 287.75 91.78C287.657 91.6467 287.61 91.4667 287.61 91.24C287.61 90.8267 287.73 90.44 287.97 90.08C288.21 89.72 288.523 89.4133 288.91 89.16C289.297 88.8933 289.743 88.6867 290.25 88.54C290.757 88.3933 291.283 88.32 291.83 88.32C293.11 88.32 294.017 88.6133 294.55 89.2C295.083 89.7733 295.35 90.58 295.35 91.62V96.64C295.35 97.1867 295.47 97.5667 295.71 97.78C295.95 97.98 296.23 98.1 296.55 98.14L296.59 98.22ZM290.95 98.2C291.643 98.2 292.23 98.04 292.71 97.72C293.203 97.4 293.557 96.9867 293.77 96.48V93.6L291.09 94.08C290.37 94.2133 289.817 94.44 289.43 94.76C289.057 95.08 288.87 95.54 288.87 96.14C288.87 96.8067 289.07 97.32 289.47 97.68C289.883 98.0267 290.377 98.2 290.95 98.2Z" fill="white"/>
<path d="M277.537 93.8C277.577 94.52 277.703 95.1533 277.917 95.7C278.143 96.2333 278.43 96.68 278.777 97.04C279.123 97.4 279.523 97.6733 279.977 97.86C280.443 98.0333 280.937 98.12 281.457 98.12C282.11 98.12 282.67 98.0333 283.137 97.86C283.617 97.6867 284.05 97.4133 284.437 97.04C284.623 97.08 284.75 97.2067 284.817 97.42C284.723 97.5667 284.57 97.7467 284.357 97.96C284.157 98.1733 283.883 98.38 283.537 98.58C283.203 98.78 282.797 98.9467 282.317 99.08C281.85 99.2267 281.303 99.3 280.677 99.3C280.01 99.3 279.39 99.18 278.817 98.94C278.243 98.7 277.743 98.3533 277.317 97.9C276.89 97.4467 276.55 96.8867 276.297 96.22C276.057 95.5533 275.937 94.8 275.937 93.96C275.937 93.1867 276.07 92.46 276.337 91.78C276.603 91.0867 276.963 90.4867 277.417 89.98C277.883 89.4733 278.423 89.0733 279.037 88.78C279.663 88.4733 280.33 88.32 281.037 88.32C281.797 88.32 282.423 88.4467 282.917 88.7C283.41 88.9533 283.797 89.28 284.077 89.68C284.37 90.08 284.57 90.52 284.677 91C284.797 91.48 284.857 91.9467 284.857 92.4C284.75 92.56 284.603 92.7 284.417 92.82C284.243 92.94 284.05 93.0333 283.837 93.1L277.537 93.8ZM280.517 89.22C280.103 89.22 279.717 89.2933 279.357 89.44C278.997 89.5867 278.683 89.8133 278.417 90.12C278.15 90.4267 277.93 90.82 277.757 91.3C277.597 91.78 277.51 92.36 277.497 93.04L283.137 92.46C283.15 92.3933 283.157 92.3267 283.157 92.26C283.157 92.1933 283.157 92.1333 283.157 92.08C283.157 91.6667 283.103 91.2867 282.997 90.94C282.89 90.5933 282.723 90.2933 282.497 90.04C282.283 89.7867 282.01 89.5867 281.677 89.44C281.357 89.2933 280.97 89.22 280.517 89.22Z" fill="white"/>
<path d="M274.054 90.68C273.974 90.8267 273.814 90.98 273.574 91.14C273.347 91.3 273.061 91.4 272.714 91.44C272.674 91.2134 272.594 90.9734 272.474 90.72C272.367 90.4534 272.207 90.2134 271.994 90C271.781 89.7734 271.514 89.5934 271.194 89.46C270.874 89.3134 270.487 89.24 270.034 89.24C269.661 89.24 269.281 89.3134 268.894 89.46C268.521 89.6067 268.181 89.8467 267.874 90.18C267.567 90.5134 267.314 90.94 267.114 91.46C266.927 91.98 266.834 92.6134 266.834 93.36C266.834 94.16 266.941 94.86 267.154 95.46C267.367 96.0467 267.654 96.54 268.014 96.94C268.374 97.3267 268.787 97.62 269.254 97.82C269.734 98.0067 270.234 98.1 270.754 98.1C271.434 98.1 272.007 98 272.474 97.8C272.954 97.5867 273.361 97.2867 273.694 96.9C273.774 96.9134 273.854 96.96 273.934 97.04C274.014 97.12 274.067 97.1934 274.094 97.26C273.987 97.4467 273.821 97.66 273.594 97.9C273.381 98.1267 273.107 98.34 272.774 98.54C272.441 98.74 272.054 98.9067 271.614 99.04C271.174 99.1867 270.674 99.26 270.114 99.26C269.447 99.26 268.814 99.1467 268.214 98.92C267.627 98.6934 267.107 98.3534 266.654 97.9C266.214 97.4467 265.861 96.8934 265.594 96.24C265.341 95.5867 265.214 94.8267 265.214 93.96C265.214 93.2 265.354 92.4867 265.634 91.82C265.914 91.14 266.294 90.5467 266.774 90.04C267.267 89.52 267.847 89.1134 268.514 88.82C269.181 88.5134 269.901 88.36 270.674 88.36C271.314 88.36 271.847 88.4534 272.274 88.64C272.701 88.8134 273.041 89.0267 273.294 89.28C273.561 89.52 273.754 89.7734 273.874 90.04C273.994 90.3067 274.054 90.52 274.054 90.68Z" fill="white"/>
<path d="M254.335 93.38C254.335 94.22 254.435 94.9533 254.635 95.58C254.849 96.2067 255.122 96.7333 255.455 97.16C255.802 97.5733 256.195 97.8867 256.635 98.1C257.089 98.3133 257.562 98.42 258.055 98.42C259.122 98.42 259.935 98.0667 260.495 97.36C261.055 96.64 261.335 95.56 261.335 94.12C261.335 93.4267 261.255 92.78 261.095 92.18C260.935 91.58 260.695 91.06 260.375 90.62C260.069 90.18 259.689 89.8333 259.235 89.58C258.782 89.3267 258.262 89.2 257.675 89.2C257.249 89.2 256.835 89.28 256.435 89.44C256.035 89.6 255.682 89.8533 255.375 90.2C255.069 90.5333 254.815 90.9667 254.615 91.5C254.429 92.02 254.335 92.6467 254.335 93.38ZM252.655 94C252.655 93.1867 252.802 92.4333 253.095 91.74C253.389 91.0333 253.782 90.4333 254.275 89.94C254.782 89.4333 255.369 89.04 256.035 88.76C256.715 88.4667 257.435 88.32 258.195 88.32C259.022 88.32 259.735 88.46 260.335 88.74C260.949 89.02 261.449 89.3933 261.835 89.86C262.235 90.3267 262.529 90.8733 262.715 91.5C262.915 92.1267 263.015 92.7867 263.015 93.48C263.015 94.2933 262.889 95.0533 262.635 95.76C262.382 96.4667 262.015 97.0867 261.535 97.62C261.069 98.14 260.495 98.5533 259.815 98.86C259.135 99.1667 258.362 99.32 257.495 99.32C256.855 99.32 256.242 99.2 255.655 98.96C255.069 98.72 254.549 98.3733 254.095 97.92C253.655 97.4667 253.302 96.9133 253.035 96.26C252.782 95.5933 252.655 94.84 252.655 94Z" fill="white"/>
<path d="M237.849 93.8C237.889 94.52 238.016 95.1533 238.229 95.7C238.456 96.2333 238.743 96.68 239.089 97.04C239.436 97.4 239.836 97.6733 240.289 97.86C240.756 98.0333 241.249 98.12 241.769 98.12C242.423 98.12 242.983 98.0333 243.449 97.86C243.929 97.6867 244.363 97.4133 244.749 97.04C244.936 97.08 245.063 97.2067 245.129 97.42C245.036 97.5667 244.883 97.7467 244.669 97.96C244.469 98.1733 244.196 98.38 243.849 98.58C243.516 98.78 243.109 98.9467 242.629 99.08C242.163 99.2267 241.616 99.3 240.989 99.3C240.323 99.3 239.703 99.18 239.129 98.94C238.556 98.7 238.056 98.3533 237.629 97.9C237.203 97.4467 236.863 96.8867 236.609 96.22C236.369 95.5533 236.249 94.8 236.249 93.96C236.249 93.1867 236.383 92.46 236.649 91.78C236.916 91.0867 237.276 90.4867 237.729 89.98C238.196 89.4733 238.736 89.0733 239.349 88.78C239.976 88.4733 240.643 88.32 241.349 88.32C242.109 88.32 242.736 88.4467 243.229 88.7C243.723 88.9533 244.109 89.28 244.389 89.68C244.683 90.08 244.883 90.52 244.989 91C245.109 91.48 245.169 91.9467 245.169 92.4C245.063 92.56 244.916 92.7 244.729 92.82C244.556 92.94 244.363 93.0333 244.149 93.1L237.849 93.8ZM240.829 89.22C240.416 89.22 240.029 89.2933 239.669 89.44C239.309 89.5867 238.996 89.8133 238.729 90.12C238.463 90.4267 238.243 90.82 238.069 91.3C237.909 91.78 237.823 92.36 237.809 93.04L243.449 92.46C243.463 92.3933 243.469 92.3267 243.469 92.26C243.469 92.1933 243.469 92.1333 243.469 92.08C243.469 91.6667 243.416 91.2867 243.309 90.94C243.203 90.5933 243.036 90.2933 242.809 90.04C242.596 89.7867 242.323 89.5867 241.989 89.44C241.669 89.2933 241.283 89.22 240.829 89.22Z" fill="white"/>
<path d="M231.735 92.72C231.735 91.5867 231.502 90.76 231.035 90.24C230.568 89.7067 229.908 89.44 229.055 89.44C228.748 89.44 228.442 89.5 228.135 89.62C227.828 89.7267 227.535 89.88 227.255 90.08C226.988 90.2667 226.735 90.4867 226.495 90.74C226.255 90.98 226.042 91.24 225.855 91.52V98.8C225.668 98.9067 225.422 98.98 225.115 99.02C224.822 99.0734 224.542 99.1 224.275 99.1V83.86C224.502 83.74 224.748 83.6534 225.015 83.6C225.295 83.5467 225.575 83.52 225.855 83.52V90.36C226.042 90.1334 226.268 89.9 226.535 89.66C226.802 89.42 227.102 89.2 227.435 89C227.768 88.8 228.128 88.64 228.515 88.52C228.915 88.3867 229.342 88.32 229.795 88.32C230.875 88.32 231.728 88.6467 232.355 89.3C232.995 89.9534 233.315 90.8867 233.315 92.1V98.8C233.128 98.9067 232.882 98.98 232.575 99.02C232.282 99.0734 232.002 99.1 231.735 99.1V92.72Z" fill="white"/>
<path d="M214.3 89.34C214.406 89.1934 214.573 89.06 214.8 88.94C215.04 88.8067 215.3 88.74 215.58 88.74H216.22V85.86C216.433 85.6867 216.68 85.56 216.96 85.48C217.253 85.3867 217.533 85.34 217.8 85.34V88.74H221.72C221.706 88.9667 221.64 89.16 221.52 89.32C221.413 89.4667 221.273 89.54 221.1 89.54H217.8V96.1C217.8 96.5267 217.846 96.8734 217.94 97.14C218.046 97.3934 218.186 97.5934 218.36 97.74C218.533 97.8867 218.733 97.9867 218.96 98.04C219.186 98.0934 219.42 98.12 219.66 98.12C220.1 98.12 220.466 98.0334 220.76 97.86C221.053 97.6867 221.293 97.5067 221.48 97.32C221.666 97.3734 221.786 97.4867 221.84 97.66C221.773 97.7667 221.666 97.9067 221.52 98.08C221.373 98.2534 221.18 98.4267 220.94 98.6C220.7 98.76 220.413 98.9 220.08 99.02C219.746 99.14 219.373 99.2 218.96 99.2C218.586 99.2 218.233 99.1534 217.9 99.06C217.566 98.9667 217.273 98.8134 217.02 98.6C216.78 98.3867 216.586 98.1 216.44 97.74C216.293 97.38 216.22 96.9334 216.22 96.4V89.54H214.3V89.34Z" fill="white"/>
<path d="M198.808 93.38C198.808 94.22 198.908 94.9533 199.108 95.58C199.321 96.2067 199.595 96.7333 199.928 97.16C200.275 97.5733 200.668 97.8867 201.108 98.1C201.561 98.3133 202.035 98.42 202.528 98.42C203.595 98.42 204.408 98.0667 204.968 97.36C205.528 96.64 205.808 95.56 205.808 94.12C205.808 93.4267 205.728 92.78 205.568 92.18C205.408 91.58 205.168 91.06 204.848 90.62C204.541 90.18 204.161 89.8333 203.708 89.58C203.255 89.3267 202.735 89.2 202.148 89.2C201.721 89.2 201.308 89.28 200.908 89.44C200.508 89.6 200.155 89.8533 199.848 90.2C199.541 90.5333 199.288 90.9667 199.088 91.5C198.901 92.02 198.808 92.6467 198.808 93.38ZM197.128 94C197.128 93.1867 197.275 92.4333 197.568 91.74C197.861 91.0333 198.255 90.4333 198.748 89.94C199.255 89.4333 199.841 89.04 200.508 88.76C201.188 88.4667 201.908 88.32 202.668 88.32C203.495 88.32 204.208 88.46 204.808 88.74C205.421 89.02 205.921 89.3933 206.308 89.86C206.708 90.3267 207.001 90.8733 207.188 91.5C207.388 92.1267 207.488 92.7867 207.488 93.48C207.488 94.2933 207.361 95.0533 207.108 95.76C206.855 96.4667 206.488 97.0867 206.008 97.62C205.541 98.14 204.968 98.5533 204.288 98.86C203.608 99.1667 202.835 99.32 201.968 99.32C201.328 99.32 200.715 99.2 200.128 98.96C199.541 98.72 199.021 98.3733 198.568 97.92C198.128 97.4667 197.775 96.9133 197.508 96.26C197.255 95.5933 197.128 94.84 197.128 94Z" fill="white"/>
<path d="M188.128 89.34C188.234 89.1934 188.401 89.06 188.628 88.94C188.868 88.8067 189.128 88.74 189.408 88.74H190.048V85.86C190.261 85.6867 190.508 85.56 190.788 85.48C191.081 85.3867 191.361 85.34 191.628 85.34V88.74H195.548C195.534 88.9667 195.468 89.16 195.348 89.32C195.241 89.4667 195.101 89.54 194.928 89.54H191.628V96.1C191.628 96.5267 191.674 96.8734 191.768 97.14C191.874 97.3934 192.014 97.5934 192.188 97.74C192.361 97.8867 192.561 97.9867 192.788 98.04C193.014 98.0934 193.248 98.12 193.488 98.12C193.928 98.12 194.294 98.0334 194.588 97.86C194.881 97.6867 195.121 97.5067 195.308 97.32C195.494 97.3734 195.614 97.4867 195.668 97.66C195.601 97.7667 195.494 97.9067 195.348 98.08C195.201 98.2534 195.008 98.4267 194.768 98.6C194.528 98.76 194.241 98.9 193.908 99.02C193.574 99.14 193.201 99.2 192.788 99.2C192.414 99.2 192.061 99.1534 191.728 99.06C191.394 98.9667 191.101 98.8134 190.848 98.6C190.608 98.3867 190.414 98.1 190.268 97.74C190.121 97.38 190.048 96.9334 190.048 96.4V89.54H188.128V89.34Z" fill="white"/>
<path d="M184.312 92.72C184.312 91.5867 184.078 90.76 183.612 90.24C183.145 89.7067 182.485 89.44 181.632 89.44C181.325 89.44 181.018 89.5 180.712 89.62C180.418 89.7267 180.132 89.8733 179.852 90.06C179.585 90.2467 179.332 90.4667 179.092 90.72C178.852 90.96 178.638 91.2133 178.452 91.48V98.8C178.265 98.9067 178.018 98.98 177.712 99.02C177.418 99.0733 177.138 99.1 176.872 99.1V88.86C177.312 88.6333 177.805 88.52 178.352 88.52V90.5C178.525 90.2733 178.745 90.0333 179.012 89.78C179.292 89.5133 179.598 89.2733 179.932 89.06C180.278 88.8467 180.652 88.6733 181.052 88.54C181.465 88.3933 181.905 88.32 182.372 88.32C183.452 88.32 184.305 88.6467 184.932 89.3C185.572 89.9533 185.892 90.8867 185.892 92.1V98.8C185.705 98.9067 185.458 98.98 185.152 99.02C184.858 99.0733 184.578 99.1 184.312 99.1V92.72Z" fill="white"/>
<path d="M173.66 85.38C173.54 85.5934 173.353 85.82 173.1 86.06C172.847 86.2867 172.62 86.4467 172.42 86.54C172.22 86.4467 171.993 86.2867 171.74 86.06C171.487 85.82 171.293 85.5934 171.16 85.38C171.293 85.1534 171.487 84.92 171.74 84.68C171.993 84.44 172.22 84.2667 172.42 84.16C172.62 84.2667 172.847 84.44 173.1 84.68C173.367 84.92 173.553 85.1534 173.66 85.38ZM171.58 88.86C171.807 88.74 172.053 88.6534 172.32 88.6C172.6 88.5467 172.88 88.52 173.16 88.52V98.8C172.973 98.9067 172.727 98.98 172.42 99.02C172.127 99.0734 171.847 99.1 171.58 99.1V88.86Z" fill="white"/>
</svg>
